<svg xmlns="http://www.w3.org/2000/svg" viewBox="0 0 310.234 200">
  <defs>
    <style>
      .cls-1 {
        fill: #92c7d3;
      }
    </style>
  </defs>
  <path id="_02n" data-name="02n" class="cls-1" d="M312.1,220.9a7.621,7.621,0,0,0-6.037-4.638,70.222,70.222,0,0,1-46.55-112.38A7.618,7.618,0,0,0,254.471,91.7a85.518,85.518,0,0,0-94.555,65.751,66.025,66.025,0,0,0-49.253-22.207c-35.9,0-65.1,28.628-65.1,63.814,0,.124,0,.247,0,.371-24.079,1.811-43.109,21.616-43.109,45.7,0,25.272,20.953,45.832,46.71,45.832H174.466a59.564,59.564,0,0,0,52.273-30.669,85.461,85.461,0,0,0,84.376-31.843A7.616,7.616,0,0,0,312.1,220.9Zm-137.639,54.82H49.161c-17.353,0-31.471-13.724-31.471-30.593s14.117-30.595,31.471-30.595a32.037,32.037,0,0,1,3.745.254,7.619,7.619,0,0,0,8.424-8.668,49.232,49.232,0,0,1-.531-7.062c0-26.784,22.369-48.575,49.865-48.575,21.809,0,41.392,14.165,47.708,34.47a7.485,7.485,0,0,0,.293.833,7.612,7.612,0,0,0,8.322,4.658,45.316,45.316,0,0,1,7.48-.621c24.321,0,44.106,19.267,44.106,42.949S198.786,275.724,174.465,275.724Zm95.713-34.4a69.468,69.468,0,0,1-37.887,4.484,57.017,57.017,0,0,0,1.52-13.032c0-32.086-26.623-58.188-59.345-58.188-.464,0-.926.031-1.39.041a70.242,70.242,0,0,1,66.837-68.345,85.41,85.41,0,0,0,50.6,122.151A70.3,70.3,0,0,1,270.178,241.323Z" transform="translate(-2.451 -90.963)"/>
</svg>
