<svg xmlns="http://www.w3.org/2000/svg" viewBox="0 0 201.224 206">
  <defs>
    <style>
      .cls-1 {
        fill: #92c7d3;
        stroke: #92c7d3;
        stroke-width: 6px;
      }
    </style>
  </defs>
  <g id="_10d" data-name="10d" transform="translate(-3.114 3)">
    <g id="Cloud__x2B__Sun__x2B__Heavy_Rain" transform="translate(6.114)">
      <g id="null">
        <path id="Path_25" data-name="Path 25" class="cls-1" d="M42.237,157.311a4.592,4.592,0,0,0-5.134,3.914L34.75,178.087a4.606,4.606,0,0,0,3.868,5.212,5.018,5.018,0,0,0,.642.045,4.569,4.569,0,0,0,4.493-3.964L46.1,162.517A4.6,4.6,0,0,0,42.237,157.311Zm24.368,0a4.571,4.571,0,0,0-5.138,3.914l-4.7,33.52a4.6,4.6,0,0,0,3.861,5.208,3.635,3.635,0,0,0,.647.046,4.561,4.561,0,0,0,4.491-3.955l4.7-33.528A4.6,4.6,0,0,0,66.605,157.311Zm25.232,0a4.559,4.559,0,0,0-5.138,3.914L82,194.745a4.593,4.593,0,0,0,3.861,5.208A3.572,3.572,0,0,0,86.5,200a4.568,4.568,0,0,0,4.5-3.955l4.7-33.528A4.608,4.608,0,0,0,91.837,157.311Zm24.359,0a4.589,4.589,0,0,0-5.136,3.914l-2.348,16.862a4.6,4.6,0,0,0,3.861,5.212,5.081,5.081,0,0,0,.641.045,4.574,4.574,0,0,0,4.5-3.964l2.349-16.862A4.6,4.6,0,0,0,116.2,157.311Zm50.777-90.6a37.494,37.494,0,0,0-43.332-30.73,36.762,36.762,0,0,0-19.388,10,36.449,36.449,0,0,0-9.16-1.207A37.084,37.084,0,0,0,64.025,61.821a25.22,25.22,0,0,0-13.378-3.814A25.772,25.772,0,0,0,25.079,83.92a26.367,26.367,0,0,0,.256,3.7A30.96,30.96,0,0,0,6.114,116.481c0,16.886,13.18,29.628,30.659,29.628h84.441a31.044,31.044,0,0,0,29.059-40.874A38.259,38.259,0,0,0,166.973,66.713Zm-45.76,70.193H36.773c-12.3,0-21.571-8.78-21.571-20.424A21.72,21.72,0,0,1,31.756,95.2a4.55,4.55,0,0,0,2.93-2.242,4.707,4.707,0,0,0,.336-3.712A16.753,16.753,0,0,1,50.646,67.211a16.275,16.275,0,0,1,11.592,4.828,4.505,4.505,0,0,0,4.014,1.246,4.552,4.552,0,0,0,3.315-2.622,27.964,27.964,0,0,1,53.546,11.719,54.436,54.436,0,0,1-.643,6.091,4.6,4.6,0,0,0,3.493,5.208,21.913,21.913,0,0,1-4.75,43.223ZM146.11,97a30.866,30.866,0,0,0-14.146-11.082c.13-1.228.232-2.512.232-3.534A37.7,37.7,0,0,0,113.76,49.93a27.836,27.836,0,0,1,11.463-4.869,28.338,28.338,0,0,1,32.8,23.261A28.981,28.981,0,0,1,146.11,97ZM130.223,22.145h.028a4.584,4.584,0,0,0,4.515-4.643l-.084-12.928A4.581,4.581,0,0,0,130.14,0h-.03a4.583,4.583,0,0,0-4.517,4.641l.083,12.928A4.58,4.58,0,0,0,130.223,22.145Zm66.571,51.543h-.036L184,73.771a4.6,4.6,0,0,0,.028,9.208h.03l12.759-.084a4.6,4.6,0,0,0-.026-9.208ZM170.9,38.625a4.46,4.46,0,0,0,3.23-1.376l8.963-9.2a4.65,4.65,0,0,0-.041-6.51,4.493,4.493,0,0,0-6.421.037l-8.961,9.208a4.643,4.643,0,0,0,.037,6.51A4.514,4.514,0,0,0,170.9,38.625ZM83.137,37.249a4.487,4.487,0,0,0,6.423.045,4.642,4.642,0,0,0,.041-6.51L80.64,21.575a4.494,4.494,0,0,0-6.421-.037,4.646,4.646,0,0,0-.041,6.51Zm85.993,75.484a4.486,4.486,0,0,0-6.421-.039,4.641,4.641,0,0,0-.041,6.512l8.963,9.208a4.5,4.5,0,0,0,6.421.037,4.645,4.645,0,0,0,.041-6.512Z" transform="translate(-6.114)"/>
      </g>
    </g>
  </g>
</svg>
