<svg xmlns="http://www.w3.org/2000/svg" viewBox="0 0 199.938 200">
  <defs>
    <style>
      .cls-1 {
        fill: #92c7d3;
      }
    </style>
  </defs>
  <g id="_1232n" data-name="1232n" transform="translate(-10.9 -10.95)">
    <path id="Path_29" data-name="Path 29" class="cls-1" d="M197.208,128.51a47.749,47.749,0,0,0-10.693-8.326c.9-.775,1.755-1.592,2.612-2.449a62.618,62.618,0,0,0,17.468-33.507A6.415,6.415,0,0,0,195.738,78.6a40.056,40.056,0,0,1-56.606-56.688A6.418,6.418,0,0,0,133.5,11.052a63.028,63.028,0,0,0-51.872,58.28,62.8,62.8,0,0,0-34.119,45.832,48.65,48.65,0,0,0,12,95.786H162.231A48.683,48.683,0,0,0,210.839,162.3a48.174,48.174,0,0,0-13.631-33.792ZM113.624,38.845a54.2,54.2,0,0,0-1.184,11.3,55.075,55.075,0,0,0,55.1,55.1,54.2,54.2,0,0,0,11.3-1.184,46.178,46.178,0,1,1-65.218-65.218Zm48.607,155.331H59.507A31.869,31.869,0,0,1,56,130.632l7.02-.775.449-7.061A45.881,45.881,0,0,1,83.219,87.82,63.081,63.081,0,0,0,169.088,131.2a31.863,31.863,0,0,1-6.856,62.973Z" transform="translate(0 0)"/>
  </g>
</svg>
