<svg xmlns="http://www.w3.org/2000/svg" viewBox="0 0 238.189 200">
  <defs>
    <style>
      .cls-1 {
        fill: #92c7d3;
      }
    </style>
  </defs>
  <g id="_13n" data-name="13n" transform="translate(0 -41.045)">
    <g id="Cloud__x2B__Snow" transform="translate(0 41.045)">
      <g id="null">
        <path id="Path_31" data-name="Path 31" class="cls-1" d="M198.328,108.395c-5.15-38.909-30.1-67.35-69.576-67.35-33.05,0-51.346,19.918-62.624,50.831A53.3,53.3,0,0,0,53.5,90.369C23.973,90.37,0,116.081,0,145.591c0,28.235,23.111,48.72,51.5,50.419h6.438V183.134H51.5C31,181.911,12.876,166.1,12.876,145.591c0-21.45,19.171-40.608,40.621-40.608a39.062,39.062,0,0,1,14.652,2.871l7.763,3.167,2.1-8.1C85.272,74.675,99.6,54.114,128.751,54.114c34.235,0,54.049,27.643,55.582,61.865l.335,7.429,8.884-.644c16.557,0,31.775,12.824,31.775,29.355s-15.631,31-32.188,31H173.827V196h19.3c24.617,0,45.063-19.287,45.063-43.878C238.189,129.355,220.808,110.8,198.328,108.395Zm-42.552,50.83L149.39,163.1l.579-6.566-10.094-.991L138.6,169.629l-17.639,10.686V158.942l10.983-8.2-5.871-8.691-5.112,3.824v-7.75H110.79v7.75l-5.1-3.824-5.884,8.7,11,8.2V180.34L93.165,169.654,91.89,155.568l-10.094.991.579,6.566-6.386-3.875-5.111,9.206,6.4,3.875-5.7,2.742,4.236,9.695,12.257-5.9,17.639,10.7-17.639,10.7-12.257-5.9-4.236,9.7,5.7,2.742-6.4,3.875,5.1,9.244,6.386-3.875-.579,6.566,10.094.992,1.275-14.086,17.639-10.7v21.385l-11,8.2,5.884,8.7,5.1-3.811v7.738h10.171v-7.738l5.1,3.811,5.884-8.7-10.983-8.2V198.828l17.639,10.7,1.275,14.086,10.094-.992-.579-6.566,6.386,3.875,5.073-9.244-6.386-3.863,5.7-2.742-4.236-9.7-12.27,5.9-17.639-10.7,17.639-10.7,12.27,5.9,4.236-9.695-5.717-2.743,6.4-3.875Z" transform="translate(0 -41.045)"/>
      </g>
    </g>
  </g>
</svg>
