<svg id="_01d" data-name="01d" xmlns="http://www.w3.org/2000/svg" viewBox="0 0 200 200">
  <defs>
    <style>
      .cls-1 {
        fill: #92c7d3;
      }
    </style>
  </defs>
  <path id="Path_1" data-name="Path 1" class="cls-1" d="M180.69,228.966a48.276,48.276,0,1,0-48.276-48.276A48.307,48.307,0,0,0,180.69,228.966Zm0-82.586a34.31,34.31,0,1,1-34.31,34.31A34.289,34.289,0,0,1,180.69,146.38Z" transform="translate(-80.69 -80.69)"/>
  <path id="Path_2" data-name="Path 2" class="cls-1" d="M252.041,29.31V7.069a7.069,7.069,0,1,0-14.138,0V29.31a7.069,7.069,0,1,0,14.138,0Z" transform="translate(-144.972)"/>
  <path id="Path_3" data-name="Path 3" class="cls-1" d="M237.9,425.938v22.241a7.069,7.069,0,1,0,14.138,0V425.938a7.069,7.069,0,1,0-14.138,0Z" transform="translate(-144.972 -255.248)"/>
  <path id="Path_4" data-name="Path 4" class="cls-1" d="M377.972,97.5l15.69-15.69a7.071,7.071,0,0,0-10-10L367.972,87.5a7.076,7.076,0,0,0,0,10,7.076,7.076,0,0,0,10,0Z" transform="translate(-222.972 -42.496)"/>
  <path id="Path_5" data-name="Path 5" class="cls-1" d="M71.806,393.662a6.906,6.906,0,0,0,5,2.069,7.2,7.2,0,0,0,5-2.069l15.69-15.69a7.071,7.071,0,0,0-10-10l-15.69,15.69A7.076,7.076,0,0,0,71.806,393.662Z" transform="translate(-42.496 -222.972)"/>
  <path id="Path_6" data-name="Path 6" class="cls-1" d="M455.248,244.972a6.992,6.992,0,0,0-7.069-7.069H425.938a7.069,7.069,0,1,0,0,14.138h22.241A7.1,7.1,0,0,0,455.248,244.972Z" transform="translate(-255.248 -144.972)"/>
  <path id="Path_7" data-name="Path 7" class="cls-1" d="M7.069,252.041H29.31a7.069,7.069,0,1,0,0-14.138H7.069A6.992,6.992,0,0,0,0,244.972,7.1,7.1,0,0,0,7.069,252.041Z" transform="translate(0 -144.972)"/>
  <path id="Path_8" data-name="Path 8" class="cls-1" d="M388.662,395.731a7.2,7.2,0,0,0,5-2.069,7.076,7.076,0,0,0,0-10l-15.69-15.69a7.071,7.071,0,0,0-10,10l15.69,15.69a7.2,7.2,0,0,0,5,2.069Z" transform="translate(-222.972 -222.972)"/>
  <path id="Path_9" data-name="Path 9" class="cls-1" d="M97.5,97.5a7.076,7.076,0,0,0,0-10l-15.69-15.69a7.071,7.071,0,0,0-10,10L87.5,97.5a7.076,7.076,0,0,0,10,0Z" transform="translate(-42.496 -42.496)"/>
</svg>
