<svg xmlns="http://www.w3.org/2000/svg" viewBox="0 0 182.823 200">
  <defs>
    <style>
      .cls-1 {
        fill: #92c7d3;
      }
    </style>
  </defs>
  <g id="_01n" data-name="01n" transform="translate(-21.986)">
    <g id="Group_2" data-name="Group 2" transform="translate(21.986)">
      <g id="Group_1" data-name="Group 1">
        <path id="Path_10" data-name="Path 10" class="cls-1" d="M322.392,141.369l-1.962,11.442a4.643,4.643,0,0,0,4.575,5.43,4.662,4.662,0,0,0,2.161-.534l10.278-5.4,10.272,5.4a4.645,4.645,0,0,0,4.9-.35,4.613,4.613,0,0,0,1.847-4.542L352.5,141.37l8.314-8.1a4.644,4.644,0,0,0-2.574-7.92l-11.491-1.67-5.139-10.414a4.643,4.643,0,0,0-8.326,0l-5.139,10.412-11.49,1.67a4.644,4.644,0,0,0-2.574,7.921Zm8.3-11.671a3.164,3.164,0,0,0,2.383-1.731l4.364-8.843,4.364,8.842a3.162,3.162,0,0,0,2.382,1.731l9.759,1.418L346.888,138a3.166,3.166,0,0,0-.91,2.8l1.667,9.719-8.729-4.589a3.163,3.163,0,0,0-2.945,0l-8.728,4.588,1.666-9.719A3.164,3.164,0,0,0,328,138l-7.062-6.883Z" transform="translate(-199.123 -67.443)"/>
        <path id="Path_11" data-name="Path 11" class="cls-1" d="M187.575,167.771a90.336,90.336,0,0,1-9.713.529A89.024,89.024,0,0,1,120.1,147.018,3.164,3.164,0,0,0,116,151.831a95.356,95.356,0,0,0,61.867,22.8q.37,0,.741,0A93.673,93.673,0,1,1,116.3,6.5a95.333,95.333,0,0,0-7.712,138.3,3.164,3.164,0,0,0,4.6-4.349A89.012,89.012,0,0,1,127.566,5.854,3.164,3.164,0,0,0,125.9.083C124.451.027,123.171,0,121.986,0A100,100,0,0,0,51.275,170.71a99.987,99.987,0,0,0,138.8,2.523,3.164,3.164,0,0,0-2.5-5.462Z" transform="translate(-21.986)"/>
        <path id="Path_12" data-name="Path 12" class="cls-1" d="M327.465,305.2a12.849,12.849,0,1,0,12.85-12.849A12.864,12.864,0,0,0,327.465,305.2Zm19.37,0a6.521,6.521,0,1,1-6.521-6.521A6.528,6.528,0,0,1,346.835,305.2Z" transform="translate(-208.137 -178.148)"/>
        <path id="Path_13" data-name="Path 13" class="cls-1" d="M462.149,256a6.763,6.763,0,1,0,6.764,6.763A6.763,6.763,0,0,0,462.149,256Z" transform="translate(-286.089 -156.001)"/>
      </g>
    </g>
  </g>
</svg>
