<svg xmlns="http://www.w3.org/2000/svg" viewBox="0 0 320 200">
  <defs>
    <style>
      .cls-1 {
        fill: #92c7d3;
      }
    </style>
  </defs>
  <g id="_03n" data-name="03n" transform="translate(0 -96)">
    <path id="Path_20" data-name="Path 20" class="cls-1" d="M200,116a60.065,60.065,0,0,1,60,59.258c-.156,1.211-.274,2.422-.312,3.672l-.508,14.688,13.906,4.844A39.848,39.848,0,0,1,260,276H60a40,40,0,0,1-.625-80c.938.137,1.914.254,2.891.313l15.2,1,5-14.356a38.808,38.808,0,0,1,44.531-26.211l14,2.519,6.973-12.4A59.99,59.99,0,0,1,200,116m0-20c-29.961,0-55.762,16.68-69.473,41.055a58.822,58.822,0,0,0-66.953,39.3C62.383,176.274,61.231,176,60,176a60,60,0,0,0,0,120H260a59.856,59.856,0,0,0,19.649-116.446c.039-1.211.351-2.343.351-3.554a80,80,0,0,0-80-80Z"/>
  </g>
</svg>
