<svg xmlns="http://www.w3.org/2000/svg" viewBox="0 0 201.24 206">
  <defs>
    <style>
      .cls-1 {
        fill: #92c7d3;
        stroke: #92c7d3;
        stroke-width: 6px;
      }
    </style>
  </defs>
  <g id="_09d" data-name="09d" transform="translate(1.706 3)">
    <g id="Cloud__x2B__Heavy_Rain" transform="translate(1.294)">
      <g id="null">
        <path id="Path_23" data-name="Path 23" class="cls-1" d="M169.3,55.293a55.946,55.946,0,0,0,.449-5.874C169.753,22.169,147.805,0,120.833,0A48.964,48.964,0,0,0,79.021,23.754a32.721,32.721,0,0,0-18.695-5.81A33.429,33.429,0,0,0,27.108,51.5a34.59,34.59,0,0,0,.541,6.06A40.36,40.36,0,0,0,1.294,95.673c0,22,17.26,38.588,40.152,38.588H156.383a40.4,40.4,0,0,0,40.152-40.554A40.834,40.834,0,0,0,169.3,55.293Zm-12.92,69.686H41.446c-17.654,0-30.963-12.6-30.963-29.308A31.082,31.082,0,0,1,34.249,65.239a4.566,4.566,0,0,0,2.961-2.261,4.7,4.7,0,0,0,.338-3.735,24.315,24.315,0,0,1,22.774-32.01,23.775,23.775,0,0,1,16.9,7.011A4.528,4.528,0,0,0,81.283,35.5a4.594,4.594,0,0,0,3.353-2.639,39.669,39.669,0,0,1,75.922,16.557,77.695,77.695,0,0,1-.886,8.515A4.646,4.646,0,0,0,163.2,63.19a31.311,31.311,0,0,1-6.82,61.789ZM52.423,147.171a4.61,4.61,0,0,0-5.194,3.948l-3.068,21.928A4.645,4.645,0,0,0,48.07,178.3a4.857,4.857,0,0,0,.651.039,4.608,4.608,0,0,0,4.548-3.985l3.062-21.928A4.648,4.648,0,0,0,52.423,147.171Zm31.789,0a4.61,4.61,0,0,0-5.194,3.948l-6.13,43.587a4.64,4.64,0,0,0,3.9,5.249,3.741,3.741,0,0,0,.653.044,4.608,4.608,0,0,0,4.545-3.984l6.13-43.589A4.649,4.649,0,0,0,84.212,147.171Zm32.926,0a4.616,4.616,0,0,0-5.2,3.948l-6.124,43.587a4.631,4.631,0,0,0,3.9,5.249,3.729,3.729,0,0,0,.651.044,4.605,4.605,0,0,0,4.545-3.984l6.128-43.589A4.65,4.65,0,0,0,117.138,147.171Zm31.785,0a4.605,4.605,0,0,0-5.194,3.948l-3.068,21.928a4.646,4.646,0,0,0,3.912,5.249,4.711,4.711,0,0,0,.646.039,4.609,4.609,0,0,0,4.55-3.985l3.064-21.928A4.655,4.655,0,0,0,148.923,147.171Z" transform="translate(-1.294)"/>
      </g>
    </g>
  </g>
</svg>
