<svg xmlns="http://www.w3.org/2000/svg" viewBox="0 0 182.39 206.027">
  <defs>
    <style>
      .cls-1 {
        fill: #92c7d3;
        stroke: #92c7d3;
        stroke-width: 6px;
      }
    </style>
  </defs>
  <g id="_10n" data-name="10n" transform="translate(-27.221 3.027)">
    <g id="Cloud__x2B__Moon__x2B__Heavy_Rain" transform="translate(30.221 0)">
      <g id="null" transform="translate(0 0)">
        <path id="Path_26" data-name="Path 26" class="cls-1" d="M63.162,154.694a4.919,4.919,0,0,0-5.519,4.162l-2.527,17.9a4.893,4.893,0,0,0,4.153,5.523,4.151,4.151,0,0,0,.689.046,4.888,4.888,0,0,0,4.834-4.2l2.521-17.9A4.887,4.887,0,0,0,63.162,154.694Zm26.187,0a4.9,4.9,0,0,0-5.523,4.151l-5.047,35.579a4.884,4.884,0,0,0,4.147,5.53,5.909,5.909,0,0,0,.694.046,4.892,4.892,0,0,0,4.829-4.2L93.5,160.218A4.888,4.888,0,0,0,89.349,154.694Zm27.12,0a4.9,4.9,0,0,0-5.521,4.151L105.9,194.423a4.884,4.884,0,0,0,4.147,5.53,5.8,5.8,0,0,0,.692.046,4.892,4.892,0,0,0,4.83-4.2l5.047-35.579A4.889,4.889,0,0,0,116.469,154.694Zm26.178,0a4.914,4.914,0,0,0-5.517,4.162l-2.521,17.9a4.885,4.885,0,0,0,4.145,5.523,4.186,4.186,0,0,0,.694.046,4.886,4.886,0,0,0,4.83-4.2l2.521-17.9A4.889,4.889,0,0,0,142.647,154.694ZM206.611,46.319c0-.223-.011-.445-.028-.659a4.881,4.881,0,0,0-8.669-3.009A26.111,26.111,0,1,1,158.675,8.245,4.884,4.884,0,0,0,154.555.04c-24.575,2.9-41.081,20.179-41.081,43.019a4.989,4.989,0,0,0,.089.886A36.488,36.488,0,0,0,86.611,59.9a25.022,25.022,0,0,0-12.794-3.482,25.286,25.286,0,0,0-25.235,25.27,24.849,24.849,0,0,0,.2,3.23A30.091,30.091,0,0,0,30.221,112.82c0,16.427,12.97,28.812,30.169,28.812h81.75A30.138,30.138,0,0,0,165.3,92.178C188.112,88.154,206.611,68.452,206.611,46.319Zm-64.475,85.533H60.387c-11.63,0-20.4-8.182-20.4-19.033a20.342,20.342,0,0,1,15.664-19.88,4.894,4.894,0,0,0,3.494-6.323A15.47,15.47,0,0,1,84.694,70.676,4.838,4.838,0,0,0,89.013,72a4.888,4.888,0,0,0,3.566-2.784,26.635,26.635,0,0,1,50.9,10.995,52.648,52.648,0,0,1-.609,5.757,4.89,4.89,0,0,0,3.752,5.53,20.431,20.431,0,0,1-4.491,40.357ZM156.79,83.164a4.843,4.843,0,0,0-2.434.674c-.427-.193-.85-.392-1.286-.564.106-1.069.186-2.168.186-3.063a36.454,36.454,0,0,0-30.212-35.866,4.741,4.741,0,0,0,.193-1.285c0-13.965,8.179-25.27,21.227-30.494A35.9,35.9,0,0,0,194.7,57.782C189.193,72.2,173.824,83.164,156.79,83.164Z" transform="translate(-30.221 0)"/>
      </g>
    </g>
  </g>
</svg>
