<svg xmlns="http://www.w3.org/2000/svg" viewBox="0 0 218.498 206">
  <defs>
    <style>
      .cls-1 {
        fill: #92c7d3;
        stroke: #92c7d3;
        stroke-width: 6px;
      }
    </style>
  </defs>
  <g id="_11n" data-name="11n" transform="translate(3 -12.057)">
    <g id="null" transform="translate(0 15.057)">
      <path id="Path_28" data-name="Path 28" class="cls-1" d="M170.682,69.266c-2.2-30.249-28.39-54.209-60.267-54.209-25.289,0-47.574,14.953-56.466,37.533q-.927-.034-1.867-.033a52.083,52.083,0,1,0,0,104.166h7.571l-1.036,2.649a4.167,4.167,0,0,0,3.882,5.685h41.666V210.89a4.166,4.166,0,0,0,7.93,1.787l26.638-56.163a4.033,4.033,0,0,0,1.044.21c10.355,0,31.05-.053,31.254-.06a43.75,43.75,0,0,0-.349-87.4ZM112.5,192.381V160.889a4.164,4.164,0,0,0-4.166-4.167H68.6l27.23-69.584v44.686A4.166,4.166,0,0,0,100,135.99h39.245Zm58.306-44.046s-17.35.044-28.217.053l7.009-14.777a4.167,4.167,0,0,0-3.764-5.952H104.166v-62.6a4.168,4.168,0,0,0-8.048-1.518l-33.2,84.85-10.157,0-.675,0a43.75,43.75,0,0,1,0-87.5c1.453,0,2.893.071,4.313.209a4.166,4.166,0,0,0,4.362-2.84C67.647,37.4,87.606,23.388,110.417,23.388c28.72,0,52.084,22.431,52.084,50a4.164,4.164,0,0,0,4.057,4.164c.513.011,1.016.008,1.529.006l.664,0a35.42,35.42,0,0,1,2.054,70.781Z" transform="translate(0 -15.057)"/>
    </g>
  </g>
</svg>
